<svg width="46" height="34" viewBox="0 0 46 34" fill="none" xmlns="http://www.w3.org/2000/svg">
<path d="M43.6611 15.2546H7.32605L18.2621 4.31852C18.4594 4.12792 18.6168 3.89994 18.7251 3.64786C18.8334 3.39578 18.8904 3.12467 18.8928 2.85032C18.8952 2.57598 18.8429 2.30392 18.739 2.05C18.6351 1.79608 18.4817 1.56539 18.2877 1.37139C18.0937 1.1774 17.863 1.02398 17.6091 0.920093C17.3552 0.816206 17.0831 0.763929 16.8088 0.766313C16.5344 0.768697 16.2633 0.825694 16.0112 0.933978C15.7592 1.04226 15.5312 1.19967 15.3406 1.397L0.877642 15.86C0.490301 16.2474 0.272705 16.7728 0.272705 17.3207C0.272705 17.8686 0.490301 18.394 0.877642 18.7815L15.3406 33.2444C15.7303 33.6208 16.2522 33.829 16.7939 33.8243C17.3356 33.8196 17.8539 33.6023 18.2369 33.2193C18.62 32.8362 18.8373 32.318 18.842 31.7762C18.8467 31.2345 18.6385 30.7126 18.2621 30.3229L7.32605 19.3868H43.6611C44.2091 19.3868 44.7346 19.1692 45.1221 18.7817C45.5096 18.3942 45.7272 17.8687 45.7272 17.3207C45.7272 16.7727 45.5096 16.2472 45.1221 15.8597C44.7346 15.4723 44.2091 15.2546 43.6611 15.2546Z" fill="black"/>
</svg>
