<svg width="100" height="100" viewBox="0 0 100 100" fill="none" xmlns="http://www.w3.org/2000/svg">
<g clip-path="url(#clip0_107_2)">
<path d="M35.1517 57.5996H64.6219V72.0185H35.1517V57.5996Z" fill="#5D656E"/>
<path d="M58.5857 57.5996H64.6219V72.0185H58.5857V57.5996Z" fill="#474D54"/>
<path d="M97.7044 99.17H2.29557C1.02777 99.17 0 98.1422 0 96.8744V72.3581C0 71.0903 1.02777 70.0625 2.29557 70.0625H97.7042C98.972 70.0625 99.9998 71.0903 99.9998 72.3581V96.8744C100 98.1422 98.9722 99.17 97.7044 99.17ZM87.861 59.5555H11.9127C11.4265 59.5555 10.9603 59.3624 10.6165 59.0186C10.2728 58.6749 10.0797 58.2087 10.0797 57.7225V2.66295C10.0797 2.17681 10.2728 1.71058 10.6165 1.36683C10.9603 1.02307 11.4265 0.829956 11.9127 0.829956H87.8612C88.3473 0.829956 88.8135 1.02307 89.1573 1.36683C89.501 1.71058 89.6942 2.17681 89.6942 2.66295V57.7225C89.6941 58.2087 89.5009 58.6749 89.1572 59.0186C88.8134 59.3624 88.3471 59.5555 87.861 59.5555Z" fill="#7F8A96"/>
<path d="M16.9992 50.4944V9.89096C16.9992 8.70826 17.9579 7.74951 19.1406 7.74951H80.633C81.8157 7.74951 82.7744 8.70826 82.7744 9.89096V50.4944C82.7744 51.6771 81.8157 52.6358 80.633 52.6358H19.1406C17.9579 52.6358 16.9992 51.6771 16.9992 50.4944Z" fill="#F2F5FB"/>
<path d="M80.633 7.74951H74.5968C75.7795 7.74951 76.7382 8.70826 76.7382 9.89096V50.4944C76.7382 51.6771 75.7795 52.6358 74.5968 52.6358H80.633C81.8157 52.6358 82.7744 51.6771 82.7744 50.4944V9.89096C82.7744 8.70826 81.8157 7.74951 80.633 7.74951Z" fill="#E6E8F0"/>
<path d="M97.5912 70.0625H91.6682C92.936 70.0625 93.9638 71.0903 93.9638 72.3581V96.8744C93.9638 98.1422 92.936 99.17 91.6682 99.17H97.5912C98.859 99.17 99.8867 98.1422 99.8867 96.8744V72.3581C99.8867 71.0903 98.859 70.0625 97.5912 70.0625ZM87.861 0.829956H81.8248C82.3109 0.829956 82.7771 1.02307 83.1209 1.36683C83.4646 1.71058 83.6577 2.17681 83.6577 2.66295V57.7225C83.6577 57.9632 83.6103 58.2016 83.5182 58.424C83.4261 58.6464 83.2911 58.8484 83.1209 59.0186C82.9507 59.1888 82.7486 59.3239 82.5262 59.416C82.3038 59.5081 82.0655 59.5555 81.8248 59.5555H87.861C88.1017 59.5555 88.34 59.5081 88.5624 59.416C88.7848 59.3239 88.9869 59.1888 89.1571 59.0186C89.3273 58.8484 89.4623 58.6464 89.5544 58.424C89.6466 58.2016 89.694 57.9632 89.694 57.7225V2.66295C89.694 2.42224 89.6466 2.18389 89.5544 1.9615C89.4623 1.73911 89.3273 1.53704 89.1571 1.36683C88.9869 1.19662 88.7848 1.0616 88.5624 0.969485C88.34 0.877368 88.1017 0.829956 87.861 0.829956Z" fill="#747E8A"/>
<path d="M85.8077 89.0227C88.2413 89.0227 90.2141 87.0499 90.2141 84.6163C90.2141 82.1827 88.2413 80.2098 85.8077 80.2098C83.374 80.2098 81.4012 82.1827 81.4012 84.6163C81.4012 87.0499 83.374 89.0227 85.8077 89.0227Z" fill="#E7E7E7"/>
<path d="M73.64 45.4236H62.4262C62.0003 45.4236 61.5919 45.2544 61.2908 44.9533C60.9897 44.6522 60.8205 44.2438 60.8205 43.8179V37.3855C60.8205 36.9597 60.9897 36.5513 61.2908 36.2502C61.5919 35.9491 62.0003 35.7799 62.4262 35.7799H73.64C74.0659 35.7799 74.4743 35.9491 74.7754 36.2502C75.0765 36.5513 75.2457 36.9597 75.2457 37.3855V43.8179C75.2457 44.0288 75.2042 44.2376 75.1235 44.4324C75.0428 44.6272 74.9246 44.8042 74.7755 44.9533C74.6264 45.1024 74.4493 45.2207 74.2545 45.3014C74.0597 45.3821 73.8509 45.4236 73.64 45.4236Z" fill="#FFA05B"/>
<path d="M52.7312 45.6247H25.7135C24.6217 45.6247 23.7366 44.7396 23.7366 43.6478V16.6303C23.7366 15.5386 24.6217 14.6534 25.7135 14.6534H52.731C53.8227 14.6534 54.7078 15.5386 54.7078 16.6303V43.6478C54.7078 44.7396 53.8229 45.6247 52.7312 45.6247Z" fill="#90D7A7"/>
<path d="M70.4978 86.1253H16.2221C15.8219 86.1253 15.4381 85.9663 15.1551 85.6833C14.8721 85.4003 14.7131 85.0165 14.7131 84.6162C14.7131 84.216 14.8721 83.8322 15.1551 83.5492C15.4381 83.2662 15.8219 83.1072 16.2221 83.1072H70.4976C70.8978 83.1072 71.2816 83.2661 71.5647 83.5491C71.8477 83.8321 72.0067 84.2159 72.0067 84.6161C72.0068 85.0164 71.8478 85.4002 71.5648 85.6832C71.2818 85.9662 70.898 86.1253 70.4978 86.1253Z" fill="#5D656E"/>
<path d="M72.5676 29.5928H63.3436C62.9434 29.5928 62.5596 29.4338 62.2766 29.1508C61.9936 28.8678 61.8346 28.4839 61.8346 28.0837C61.8346 27.6835 61.9936 27.2996 62.2766 27.0166C62.5596 26.7336 62.9434 26.5746 63.3436 26.5746H72.5676C72.9678 26.5746 73.3517 26.7336 73.6347 27.0166C73.9177 27.2996 74.0767 27.6835 74.0767 28.0837C74.0767 28.4839 73.9177 28.8678 73.6347 29.1508C73.3517 29.4338 72.9678 29.5928 72.5676 29.5928ZM72.5676 23.1565H63.3436C62.9434 23.1565 62.5596 22.9975 62.2766 22.7145C61.9936 22.4315 61.8346 22.0477 61.8346 21.6475C61.8346 21.2473 61.9936 20.8634 62.2766 20.5804C62.5596 20.2974 62.9434 20.1384 63.3436 20.1384H72.5676C72.9678 20.1384 73.3517 20.2974 73.6347 20.5804C73.9177 20.8634 74.0767 21.2473 74.0767 21.6475C74.0767 22.0477 73.9177 22.4315 73.6347 22.7145C73.3517 22.9975 72.9678 23.1565 72.5676 23.1565Z" fill="#C9C9C9"/>
<path d="M54.7078 36.416H46.0161V31.648H54.7078V28.6299H46.0161V23.8619H54.7078V20.8438H46.0161V14.6534H42.998V20.8438H35.4469V14.6534H32.4288V20.8438H23.7368V23.8619H32.4288V28.6299H23.7368V31.648H32.4288V36.416H23.7368V39.4341H32.4288V45.6247H35.4469V39.4341H42.998V45.6247H46.0161V39.4341H54.7078V36.416ZM42.998 36.416H35.4469V31.648H42.998V36.416ZM42.998 28.6299H35.4469V23.8619H42.998V28.6299Z" fill="#72C888"/>
</g>
<defs>
<clipPath id="clip0_107_2">
<rect width="100" height="100" fill="white"/>
</clipPath>
</defs>
</svg>
