<svg width="116" height="102" viewBox="0 0 116 102" fill="none" xmlns="http://www.w3.org/2000/svg">
<path d="M41.3815 101.5H112.23C114.154 101.5 115.714 99.9404 115.714 98.0162V31.8243C115.714 30.2075 115.292 28.6188 114.49 27.215L101.286 4.10721H58L44.7954 27.2152C43.9933 28.619 43.5714 30.2077 43.5715 31.8245L41.3815 101.5Z" fill="#FE9738"/>
<path d="M114.49 27.215L111.069 21.2283V93.3711C111.069 95.2951 109.51 96.8549 107.586 96.8549H41.5276L41.3815 101.5H112.23C114.154 101.5 115.714 99.9402 115.714 98.0162V31.8243C115.714 30.2075 115.292 28.6188 114.49 27.215Z" fill="#FE860A"/>
<path d="M79.6428 90.6786C93.588 90.6786 104.893 79.3738 104.893 65.4286C104.893 51.4834 93.588 40.1786 79.6428 40.1786C65.6976 40.1786 54.3928 51.4834 54.3928 65.4286C54.3928 79.3738 65.6976 90.6786 79.6428 90.6786Z" fill="#EAF6FF"/>
<path d="M44.1007 23.731C43.9466 23.2685 43.6509 22.8663 43.2554 22.5813C42.86 22.2963 42.3849 22.1429 41.8975 22.1429H33.3307C33.1767 22.1429 33.0291 22.2041 32.9202 22.3129C32.8114 22.4218 32.7502 22.5695 32.7502 22.7234V24.5888C32.7502 24.7413 32.7202 24.8923 32.6619 25.0332C32.6035 25.1741 32.518 25.3022 32.4101 25.41C32.3023 25.5178 32.1743 25.6034 32.0334 25.6617C31.8924 25.7201 31.7414 25.7501 31.5889 25.7501H19.4827C19.3302 25.7501 19.1791 25.7201 19.0382 25.6617C18.8973 25.6034 18.7693 25.5178 18.6615 25.41C18.5536 25.3022 18.4681 25.1741 18.4097 25.0332C18.3514 24.8923 18.3214 24.7413 18.3214 24.5888V22.7234C18.3214 22.6472 18.3064 22.5717 18.2772 22.5013C18.248 22.4308 18.2053 22.3669 18.1514 22.3129C18.0975 22.259 18.0335 22.2163 17.963 22.1871C17.8926 22.1579 17.8171 22.1429 17.7409 22.1429H9.1739C8.68645 22.1429 8.21135 22.2963 7.81591 22.5813C7.42047 22.8663 7.12474 23.2685 6.97062 23.731L3.89282 32.9643L25.5357 36.5715L44.5286 32.9643L44.1007 23.731Z" fill="#46CC8D"/>
<path d="M44.1007 23.731C43.9466 23.2685 43.6508 22.8663 43.2554 22.5813C42.86 22.2963 42.3849 22.1429 41.8975 22.1429H40.0876L42.0239 27.9522C42.2746 28.7041 41.7148 29.4807 40.9222 29.4807H5.0541L3.89282 32.9643L25.5357 36.5715L47.1785 32.9643L44.1007 23.731Z" fill="#00C27A"/>
<path d="M41.3814 101.5H9.68995C9.09758 101.5 8.52758 101.274 8.09659 100.867C7.6656 100.461 7.40619 99.9053 7.37146 99.3139L3.89282 40.1786L25.5357 36.5715L47.1785 40.1786L40.3342 98.037C40.2621 99.2648 42.6112 101.5 41.3814 101.5Z" fill="#EAF6FF"/>
<path d="M42.308 39.3668L39.055 94.6688C39.0203 95.2602 38.7609 95.8159 38.3299 96.2223C37.8989 96.6287 37.3289 96.855 36.7365 96.855H7.22668L7.37142 99.3139C7.40616 99.9053 7.66556 100.461 8.09655 100.867C8.52754 101.274 9.09754 101.5 9.68991 101.5H41.3816C42.6114 101.5 43.6279 100.541 43.7001 99.3139L47.1785 40.1787L42.308 39.3668Z" fill="#D8ECFE"/>
<path d="M44.9793 40.1786H1.44692C1.29441 40.1787 1.14339 40.1487 1.00248 40.0903C0.861578 40.032 0.733548 39.9464 0.625708 39.8386C0.517868 39.7307 0.43233 39.6027 0.373981 39.4618C0.315632 39.3209 0.285615 39.1699 0.285645 39.0174V34.1256C0.285615 33.9731 0.315632 33.8221 0.373981 33.6812C0.43233 33.5403 0.517868 33.4123 0.625708 33.3044C0.733548 33.1966 0.861578 33.111 1.00248 33.0527C1.14339 32.9943 1.29441 32.9643 1.44692 32.9644H44.9795C45.6209 32.9644 48.3366 33.4842 48.3366 34.1256V39.0174C48.3366 39.6588 45.6207 40.1786 44.9793 40.1786Z" fill="#46CC8D"/>
<path d="M49.6243 32.9644H44.9792C45.1318 32.9643 45.2828 32.9943 45.4237 33.0527C45.5646 33.111 45.6926 33.1966 45.8005 33.3044C45.9083 33.4123 45.9938 33.5403 46.0522 33.6812C46.1105 33.8221 46.1406 33.9731 46.1405 34.1256V39.0174C46.1406 39.1699 46.1105 39.3209 46.0522 39.4618C45.9938 39.6027 45.9083 39.7307 45.8005 39.8386C45.6926 39.9464 45.5646 40.032 45.4237 40.0903C45.2828 40.1487 45.1318 40.1787 44.9792 40.1786H49.6243C49.7769 40.1787 49.9279 40.1487 50.0688 40.0903C50.2097 40.032 50.3377 39.9464 50.4456 39.8386C50.5534 39.7307 50.6389 39.6027 50.6973 39.4618C50.7556 39.3209 50.7857 39.1699 50.7856 39.0174V34.1256C50.7857 33.9731 50.7556 33.8221 50.6973 33.6812C50.6389 33.5403 50.5534 33.4123 50.4456 33.3044C50.3377 33.1966 50.2097 33.111 50.0688 33.0527C49.9279 32.9943 49.7769 32.9643 49.6243 32.9644Z" fill="#00C27A"/>
<path d="M106.889 11.3215L78.5481 8.99894L52.3968 11.3215C51.6041 11.3215 51.0446 10.5451 51.295 9.79296L54.128 1.29408C54.205 1.06283 54.3529 0.8617 54.5507 0.719186C54.7484 0.576673 54.986 0.500009 55.2298 0.500061H104.056C104.3 0.500112 104.537 0.576815 104.735 0.719314C104.933 0.861813 105.08 1.06289 105.158 1.29408L107.991 9.79296C108.241 10.5451 107.681 11.3215 106.889 11.3215Z" fill="#FE9738"/>
<path d="M107.991 9.79296L105.158 1.29408C105.08 1.06287 104.933 0.861775 104.735 0.719272C104.537 0.576768 104.3 0.500078 104.056 0.500061H101.409L103.345 6.30937C103.596 7.06123 103.036 7.83789 102.244 7.83789H51.947L51.2952 9.79319C51.0445 10.5451 51.6043 11.3217 52.397 11.3217H106.889C107.681 11.3215 108.241 10.5451 107.991 9.79296Z" fill="#FE860A"/>
<path d="M94.0714 61.8215L79.6428 66.4666L67.2897 62.4897C67.2897 62.4897 65.2852 58.9673 65.4198 58.3377C66.3166 54.1444 70.0433 51.0001 74.5042 51.0001H84.7814C85.8205 51.0001 86.8196 51.1707 87.7523 51.4852C91.426 52.7243 90.8867 55.5895 90.8867 59.6811L94.0714 61.8215Z" fill="#FDB97E"/>
<path d="M87.7523 51.4852C88.8447 53.0443 89.4293 54.9025 89.4263 56.8062V57.1764C89.4263 57.3289 89.3963 57.4799 89.3379 57.6208C89.2796 57.7617 89.1941 57.8898 89.0862 57.9976C88.9784 58.1054 88.8503 58.191 88.7094 58.2493C88.5685 58.3077 88.4175 58.3377 88.265 58.3377H65.4198C65.2828 58.9794 65.2139 59.6338 65.2142 60.29V61.8215L79.6428 66.4666L94.0714 61.8215V60.29C94.0714 56.1984 91.426 52.7245 87.7523 51.4852Z" fill="#FEA95C"/>
<path d="M69.7378 76.25H84.9027C86.5013 76.25 90.6644 74.9188 91.0522 73.3679L94.0714 69.0358L79.6428 64.3907L65.2142 69.0358L66.3581 73.6112C66.5465 74.3649 66.9815 75.0341 67.5939 75.5122C68.2063 75.9903 68.9609 76.25 69.7378 76.25Z" fill="#FDB97E"/>
<path d="M79.6429 64.3907L77.3203 65.1382L89.4263 69.0358L88.2824 73.6112C88.094 74.3649 87.659 75.034 87.0467 75.5122C86.4343 75.9903 85.6797 76.25 84.9028 76.25H89.5479C90.3248 76.25 91.0794 75.9903 91.6918 75.5122C92.3042 75.0341 92.7391 74.3649 92.9275 73.6112L94.0714 69.0358L79.6429 64.3907Z" fill="#FEA95C"/>
<path d="M89.4263 69.0358H65.2143C63.9315 69.0358 62.8917 67.996 62.8917 66.7132V64.1441C62.8917 62.8613 63.9315 61.8215 65.2143 61.8215H89.4263C90.7091 61.8215 94.0714 62.8613 94.0714 64.1441V66.7132C94.0714 67.996 90.7091 69.0358 89.4263 69.0358Z" fill="#EB5569"/>
<path d="M94.0714 61.8215H89.4263C90.7088 61.8215 91.7488 62.8613 91.7488 64.1441V66.7132C91.7488 67.996 90.7091 69.0358 89.4263 69.0358H94.0714C95.3542 69.0358 96.3939 67.996 96.3939 66.7132V64.1441C96.3939 62.8613 95.3542 61.8215 94.0714 61.8215Z" fill="#E53950"/>
<path d="M104.893 31.099H54.3927C54.1639 31.099 53.9374 31.054 53.7261 30.9664C53.5148 30.8789 53.3228 30.7506 53.161 30.5889C52.9993 30.4271 52.871 30.2351 52.7835 30.0238C52.6959 29.8125 52.6509 29.586 52.6509 29.3572C52.6509 29.1285 52.6959 28.902 52.7835 28.6907C52.871 28.4793 52.9993 28.2873 53.161 28.1256C53.3228 27.9638 53.5148 27.8355 53.7261 27.748C53.9374 27.6605 54.1639 27.6154 54.3927 27.6154H104.893C105.855 27.6154 106.634 28.3952 106.634 29.3572C106.634 30.3192 105.855 31.099 104.893 31.099Z" fill="#FE860A"/>
</svg>
