<svg width="100" height="103" viewBox="0 0 100 103" fill="none" xmlns="http://www.w3.org/2000/svg">
<path d="M80.2737 37.9758C77.5769 29.9434 70.0687 24.5469 61.5908 24.5469C55.1623 24.5469 49.1219 27.6969 45.4327 32.9734C45.3005 33.1623 45.214 33.3792 45.1799 33.6072C45.1458 33.8352 45.1649 34.068 45.2359 34.2873C45.307 34.5066 45.4278 34.7065 45.5891 34.8712C45.7504 35.0359 45.9476 35.161 46.1654 35.2366C52.2326 37.3449 57.125 41.9628 59.5882 47.9061L59.5894 47.9087C59.7027 48.1806 59.8939 48.4129 60.139 48.5762C60.3841 48.7396 60.6721 48.8268 60.9666 48.8268C61.1573 48.8268 61.3514 48.79 61.5383 48.7122C61.756 48.6219 61.9493 48.4812 62.1021 48.3017C62.2548 48.1221 62.3628 47.9089 62.4171 47.6794C65.4604 42.8114 70.8613 39.803 76.6065 39.803C77.2953 39.803 77.992 39.8459 78.6772 39.9304C78.9274 39.9612 79.1813 39.9282 79.4152 39.8343C79.6491 39.7404 79.8554 39.5888 80.0148 39.3936C80.1742 39.1984 80.2816 38.966 80.3269 38.7181C80.3721 38.4701 80.3539 38.2148 80.2737 37.9758Z" fill="#F4B70C"/>
<path d="M74.5258 37.9846C72.1366 33.0621 67.06 29.8814 61.5921 29.8814C57.221 29.8814 53.1393 31.8384 50.3937 35.2505C50.2618 35.4144 50.166 35.6043 50.1128 35.8078C50.0595 36.0112 50.0498 36.2237 50.0844 36.4311C50.1191 36.6386 50.1972 36.8364 50.3137 37.0115C50.4302 37.1867 50.5824 37.3352 50.7603 37.4473C54.7184 39.9412 57.7625 43.5344 59.5628 47.8385C59.7136 48.1995 60.0003 48.4866 60.361 48.6379C60.7217 48.7893 61.1275 48.7927 61.4907 48.6474C61.8482 48.5052 62.1366 48.2299 62.2954 47.8795C64.7547 43.817 68.8166 40.9855 73.463 40.1009C73.688 40.058 73.9001 39.964 74.0829 39.826C74.2656 39.688 74.4141 39.5098 74.5169 39.3051C74.6197 39.1005 74.674 38.8749 74.6755 38.6459C74.6771 38.4169 74.6258 38.1906 74.5258 37.9846Z" fill="#FFDF65"/>
<path d="M69.0971 39.8159C67.533 37.1741 64.6572 35.5333 61.5919 35.5333C58.9322 35.5333 56.4515 36.7259 54.786 38.8052C54.5583 39.0894 54.4425 39.4471 54.4604 39.8109C54.4783 40.1746 54.6287 40.5192 54.8833 40.7797C56.9112 42.8554 58.4998 45.2657 59.6041 47.9441C59.7164 48.2181 59.9076 48.4525 60.1535 48.6174C60.3994 48.7824 60.6888 48.8704 60.9849 48.8703C61.1744 48.8703 61.367 48.8339 61.5529 48.7572C61.7882 48.6603 61.9947 48.5048 62.1528 48.3055C62.3109 48.1062 62.4154 47.8697 62.4563 47.6186C63.967 45.2245 66.058 43.2509 68.5352 41.8807C68.7098 41.7841 68.8633 41.6535 68.9865 41.4966C69.1097 41.3397 69.2002 41.1596 69.2526 40.9671C69.305 40.7746 69.3183 40.5735 69.2915 40.3757C69.2648 40.178 69.1987 39.9876 69.0971 39.8159Z" fill="#F4B70C"/>
<path d="M95.2813 50.2219C92.5767 42.2063 85.0723 36.8207 76.6075 36.8207C69.6849 36.8207 63.1872 40.5259 59.6507 46.4901C59.532 46.6903 59.4618 46.9154 59.4457 47.1475C59.4296 47.3796 59.468 47.6123 59.5578 47.8269C59.9972 48.8756 60.3562 49.9561 60.6318 51.0593C60.7122 51.3822 60.8983 51.6689 61.1605 51.8738C61.4227 52.0787 61.7459 52.19 62.0787 52.1901H93.8682C94.1049 52.19 94.3382 52.1336 94.5489 52.0255C94.7595 51.9174 94.9414 51.7607 95.0795 51.5684C95.2175 51.3761 95.3079 51.1537 95.343 50.9195C95.3781 50.6854 95.3569 50.4463 95.2813 50.2219Z" fill="#FFDF65"/>
<path d="M87.9915 50.0246C85.7999 45.7004 81.4378 43.0141 76.6072 43.0141C71.7766 43.0141 67.4144 45.7004 65.2228 50.0246C65.1077 50.252 65.0528 50.5051 65.0633 50.7597C65.0738 51.0144 65.1493 51.2621 65.2827 51.4792C65.4162 51.6963 65.603 51.8757 65.8254 52.0001C66.0478 52.1245 66.2984 52.1899 66.5532 52.19H86.6613C86.9162 52.1899 87.1668 52.1246 87.3892 52.0002C87.6117 51.8758 87.7986 51.6965 87.9321 51.4793C88.0654 51.2621 88.1409 51.0144 88.1513 50.7597C88.1617 50.5051 88.1067 50.252 87.9915 50.0246Z" fill="#F4B70C"/>
<path d="M41.6237 31.7704L23.7679 2.85142C23.1291 1.81685 22.1239 1.10103 20.9377 0.835574C19.7512 0.569923 18.5367 0.789244 17.5178 1.45278C16.4992 2.11631 15.8078 3.13835 15.5712 4.33099C15.3344 5.52344 15.5829 6.73239 16.2709 7.73475L34.0257 33.6025C34.1835 33.8325 34.4027 34.0135 34.6583 34.1252C34.9139 34.2368 35.1957 34.2745 35.4716 34.234C37.056 34.0029 38.6602 33.9386 40.2579 34.0422C40.5311 34.0599 40.8038 34.0021 41.0464 33.8752C41.2889 33.7483 41.4919 33.5571 41.6331 33.3226C41.774 33.0879 41.8477 32.8189 41.846 32.5452C41.8444 32.2714 41.7675 32.0034 41.6237 31.7704ZM26.6113 35.5104L7.8218 14.3428C7.01451 13.4337 5.90141 12.9012 4.6869 12.8436C3.471 12.7867 2.31355 13.2108 1.42414 14.0398C0.534533 14.8688 0.0292816 15.9946 0.00124522 17.2099C-0.02699 18.4254 0.425768 19.5735 1.27601 20.4425L20.8484 40.4532C20.9872 40.5952 21.153 40.708 21.3361 40.7851C21.5191 40.8621 21.7158 40.9018 21.9144 40.9018C22.306 40.9017 22.682 40.7477 22.961 40.4729C23.9914 39.4577 25.1166 38.5435 26.321 37.7426C26.4988 37.6246 26.6492 37.4698 26.762 37.2887C26.8749 37.1075 26.9475 36.9043 26.975 36.6927C27.0025 36.4811 26.9843 36.266 26.9216 36.062C26.8588 35.8581 26.753 35.67 26.6113 35.5104Z" fill="#6E563D"/>
<path d="M63.5264 50.338C60.6912 38.9583 50.5108 31.0107 38.7697 31.0107C27.0284 31.0107 16.848 38.9583 14.013 50.338C13.9581 50.5578 13.9541 50.7872 14.0012 51.0088C14.0483 51.2304 14.1453 51.4383 14.2847 51.6168C14.4242 51.7954 14.6025 51.9397 14.8062 52.039C15.0098 52.1383 15.2334 52.1898 15.4599 52.1898H62.0793C62.3058 52.1898 62.5294 52.1382 62.733 52.0389C62.9366 51.9396 63.1149 51.7953 63.2544 51.6168C63.3939 51.4383 63.4909 51.2304 63.538 51.0088C63.5851 50.7872 63.5812 50.5578 63.5264 50.338Z" fill="#FFDF65"/>
<path d="M57.4421 50.2219C54.7375 42.2063 47.2331 36.8207 38.7683 36.8207C30.3037 36.8207 22.7989 42.2063 20.0943 50.2219C20.0186 50.4463 19.9974 50.6854 20.0324 50.9196C20.0675 51.1538 20.1578 51.3762 20.2959 51.5686C20.434 51.7609 20.6159 51.9176 20.8266 52.0257C21.0373 52.1337 21.2706 52.1901 21.5074 52.1901H56.0292C56.2659 52.19 56.4992 52.1335 56.7098 52.0254C56.9204 51.9173 57.1022 51.7606 57.2403 51.5683C57.3783 51.376 57.4687 51.1536 57.5037 50.9195C57.5388 50.6854 57.5177 50.4463 57.4421 50.2219Z" fill="#F4B70C"/>
<path d="M50.3729 50.0229C48.1393 45.6286 43.6933 42.8987 38.7702 42.8987C33.8473 42.8987 29.4015 45.6286 27.1673 50.0229C27.0517 50.2503 26.9964 50.5035 27.0066 50.7584C27.0167 51.0132 27.0921 51.2612 27.2255 51.4786C27.3589 51.696 27.5458 51.8756 27.7683 52.0002C27.9909 52.1247 28.2417 52.1901 28.4968 52.1901H49.0434C49.2985 52.1901 49.5493 52.1247 49.7719 52.0002C49.9944 51.8756 50.1813 51.696 50.3147 51.4786C50.4481 51.2612 50.5235 51.0132 50.5336 50.7584C50.5438 50.5035 50.4885 50.2503 50.3729 50.0229Z" fill="#FFDF65"/>
<path d="M72.4931 89.7038H35.4908C35.0953 89.7038 34.716 89.8609 34.4363 90.1406C34.1566 90.4203 33.9995 90.7996 33.9995 91.1951V97.8006C33.9995 100.268 36.0066 102.275 38.4734 102.275H69.5105C71.9773 102.275 73.9844 100.268 73.9844 97.8006V91.1951C73.9844 90.7996 73.8272 90.4203 73.5476 90.1406C73.2679 89.8609 72.8886 89.7038 72.4931 89.7038Z" fill="#B32425"/>
<path d="M72.4916 89.7038H65.5646C65.9601 89.7038 66.3395 89.8609 66.6191 90.1406C66.8988 90.4203 67.0559 90.7996 67.0559 91.1951V97.8006C67.0559 100.268 65.0488 102.275 62.582 102.275H69.509C71.9758 102.275 73.9829 100.268 73.9829 97.8006V91.1951C73.9829 90.7996 73.8258 90.4203 73.5461 90.1406C73.2664 89.8609 72.8871 89.7038 72.4916 89.7038Z" fill="#9E1219"/>
<path d="M98.5067 49.2076H9.47177C9.07625 49.2076 8.69693 49.3648 8.41726 49.6444C8.13759 49.9241 7.98047 50.3034 7.98047 50.6989C7.98047 59.6854 10.5723 68.392 15.4759 75.8769C20.0775 82.9008 26.4678 88.5089 33.9982 92.1459H73.9801C81.5105 88.5089 87.9008 82.901 92.5024 75.8769C97.406 68.3918 99.9978 59.6854 99.9978 50.6989C99.9979 50.5031 99.9594 50.3092 99.8844 50.1282C99.8095 49.9473 99.6997 49.7829 99.5612 49.6444C99.4228 49.5059 99.2584 49.396 99.0774 49.3211C98.8965 49.2462 98.7026 49.2076 98.5067 49.2076Z" fill="#F2433B"/>
<path d="M98.5087 49.2076H91.5818C91.9773 49.2076 92.3566 49.3648 92.6363 49.6444C92.9159 49.9241 93.073 50.3034 93.073 50.6989C93.073 59.6854 90.4812 68.392 85.5776 75.8769C80.976 82.9008 74.5857 88.5089 67.0553 92.1459H73.9823C81.5127 88.5089 87.903 82.901 92.5046 75.8769C97.4081 68.3918 100 59.6854 100 50.6989C100 50.3034 99.8429 49.9241 99.5632 49.6444C99.2836 49.3648 98.9042 49.2076 98.5087 49.2076Z" fill="#D72E2E"/>
<path d="M98.5067 49.2076H9.47177C9.07625 49.2076 8.69693 49.3648 8.41726 49.6444C8.13759 49.9241 7.98047 50.3034 7.98047 50.6989C7.98047 55.3978 8.69052 60.0196 10.0677 64.4307H97.9106C99.2878 60.0196 99.9978 55.3978 99.9978 50.6989C99.9979 50.5031 99.9594 50.3092 99.8844 50.1282C99.8095 49.9473 99.6997 49.7829 99.5612 49.6444C99.4228 49.5059 99.2584 49.396 99.0774 49.3211C98.8965 49.2462 98.7026 49.2076 98.5067 49.2076Z" fill="#FFA035"/>
<path d="M98.5083 49.2076H91.5813C91.9768 49.2076 92.3561 49.3648 92.6358 49.6444C92.9155 49.9241 93.0726 50.3034 93.0726 50.6989C93.0726 55.3978 92.3625 60.0196 90.9854 64.4307H97.9123C99.2895 60.0196 99.9995 55.3978 99.9995 50.6989C99.9995 50.3034 99.8424 49.9241 99.5628 49.6444C99.2831 49.3648 98.9038 49.2076 98.5083 49.2076Z" fill="#F78819"/>
</svg>
