<svg width="58" height="100" viewBox="0 0 58 100" fill="none" xmlns="http://www.w3.org/2000/svg">
<path d="M35.471 90.6328V87.1153C35.471 87.1153 32.7947 84.4581 32.7947 80.52L37.3254 45.995C37.4209 45.0774 37.8797 44.2363 38.568 43.6246L38.6253 43.5863C40.384 42.0187 43.1942 42.2481 44.628 44.0642L57.0921 57.6754C57.5318 58.2489 57.7803 58.9753 57.7803 59.7018V90.6328" fill="#EFCDB1"/>
<path d="M45.6221 6.63354V73.4659L3.58428 75.4731C1.82554 75.5496 0.315311 74.2497 0.219727 72.5674V6.63354H45.6221Z" fill="#73C9DF"/>
<path d="M41.1105 50.3728L4.65479 50.0096V12.9421H41.1105V50.3728Z" fill="white"/>
<path d="M19.3365 20.3785H12.0721V27.6429H19.3365V20.3785ZM17.6925 25.9989H13.7162V22.0417H17.6925V25.9989ZM26.9259 42.4967H34.1903V35.2323H26.9259V42.4967ZM28.5699 36.8763H32.5462V40.8526H28.5699V36.8763ZM34.1903 20.3785H26.9259V27.6429H34.1903V20.3785ZM32.5462 25.9989H28.5699V22.0417H32.5462V25.9989ZM12.0721 42.4967H19.3365V35.2323H12.0721V42.4967ZM13.7162 36.8763H17.6925V40.8526H13.7162V36.8763Z" fill="#565656"/>
<path d="M23.9436 22.3284V26.2665H22.2996V27.9105H20.6555V28.9237H22.2996V30.4913H17.3675V28.8473H15.7234V30.4913H14.0603V32.1354H12.4162V33.7985H20.6747V32.1354H22.3187V30.5678H23.9436V27.9105H25.5877V22.3284H23.9436ZM27.2508 30.5678H23.9436V33.7985H20.6747V37.0866H22.2996V40.3556H23.9436V42.0187H25.5877V37.0675H23.9628V35.519H25.5877L25.6068 32.2309H27.2508V30.5678ZM32.2021 33.875V32.2309H33.8461V30.5678H28.8949V32.078H30.5581V33.875H32.2021ZM20.6364 40.3556H22.2805V41.9996H20.6364V40.3556ZM10.1222 28.9237H11.7662V30.5678H10.1222V28.9237ZM33.8461 28.9237H35.4902V30.5678H33.8461V28.9237ZM20.6555 20.0344H22.2996V21.6785H20.6555V20.0344ZM27.2508 28.9237H28.8949V30.5678H27.2508V28.9237ZM22.2996 43.9113H23.9436V45.5554H22.2996V43.9113ZM7.02527 27.987H8.70755V16.9184H19.91V15.2361H7.02527V27.987ZM26.4288 15.1596V16.8419H37.4975V28.0635H39.1797V15.1596H26.4288ZM39.1797 34.8499H37.4975V45.9186H26.2759V47.6009H39.1797V34.8499ZM19.7762 47.6773V45.995H8.70755V34.7926H7.02527V47.6773H19.7762Z" fill="#565656"/>
<path d="M0.200562 23.3799H45.6221V25.2915H0.200562V23.3799Z" fill="#F04930"/>
<path d="M45.6221 69.9102V75.282C45.6221 78.8568 42.7163 81.7626 39.1415 81.7626H6.70027C3.12543 81.7626 0.219678 78.8568 0.200562 75.282V69.9102H45.6221Z" fill="#565656"/>
<path d="M19.3748 75.0908H27.4803V77.0025H19.3748V75.0908Z" fill="white"/>
<path d="M45.6221 6.49971V6.63353H0.200562V6.49971C0.200562 2.90575 3.10632 0 6.70027 0H39.1415C42.7163 0.0191168 45.6221 2.92487 45.6221 6.49971Z" fill="#565656"/>
<path d="M45.5647 85.2036C45.5647 85.2036 40.6708 81.1891 39.7341 76.1996C38.9503 72.0895 40.4223 68.0176 40.4223 68.0176L33.8652 60.887C32.4315 59.3959 32.4506 57.0446 33.9035 55.5917C35.3563 54.1388 37.7077 54.1197 39.1797 55.5343L51.8542 68.0176" fill="#EFCDB1"/>
<path d="M51.8542 68.9734C51.6057 68.9734 51.3572 68.8779 51.1851 68.6867L45.9662 63.5443C45.5839 63.181 45.5839 62.5884 45.928 62.2252L45.9471 62.2061C46.3103 61.8238 46.9221 61.8238 47.3044 62.187L52.5233 67.3294C52.9056 67.6926 52.9056 68.3043 52.5233 68.6867C52.3513 68.8779 52.1027 68.9734 51.8542 68.9734ZM45.5648 86.1594C45.3545 86.1594 45.1442 86.083 44.9722 85.9492C44.7619 85.7771 39.7724 81.6479 38.7783 76.3716C37.9754 72.0512 39.4474 67.8838 39.5239 67.6926C39.715 67.1956 40.2694 66.9662 40.7665 67.1573C41.2444 67.3485 41.4738 67.8647 41.3209 68.3426C41.3017 68.3808 39.9444 72.2233 40.6709 76.0275C41.5311 80.6156 46.1192 84.4198 46.1765 84.458C46.578 84.8021 46.6353 85.3948 46.3103 85.8153C46.1192 86.0447 45.8515 86.1594 45.5648 86.1594Z" fill="#E5B591"/>
<path d="M35.4711 90.6328H57.7995V100H35.4711V90.6328Z" fill="#E87B1E"/>
</svg>
